<svg width="413" height="413" viewBox="0 0 413 413" fill="none" xmlns="http://www.w3.org/2000/svg">
<path d="M58.5082 351.05L358.794 222.332C361.898 221.009 364.545 218.804 366.405 215.989C368.266 213.174 369.258 209.874 369.258 206.5C369.258 203.126 368.266 199.826 366.405 197.011C364.545 194.197 361.898 191.991 358.794 190.668L58.5082 61.95C55.908 60.8159 53.0664 60.3469 50.2397 60.5854C47.413 60.824 44.6902 61.7624 42.3168 63.3162C39.9435 64.87 37.9943 66.9902 36.6451 69.4855C35.2959 71.9809 34.5891 74.7729 34.5886 77.6096L34.4165 156.94C34.4165 165.544 40.7836 172.944 49.3878 173.976L292.541 206.5L49.3878 238.852C40.7836 240.056 34.4165 247.456 34.4165 256.06L34.5886 335.39C34.5886 347.608 47.1507 356.04 58.5082 351.05Z" fill="black"/>
</svg>
